<?xml version="1.0" encoding="utf-8"?>
<!-- Generator: Adobe Illustrator 16.0.0, SVG Export Plug-In . SVG Version: 6.00 Build 0)  -->
<!DOCTYPE svg PUBLIC "-//W3C//DTD SVG 1.0//EN" "http://www.w3.org/TR/2001/REC-SVG-20010904/DTD/svg10.dtd">
<svg version="1.0" id="Layer_1" xmlns="http://www.w3.org/2000/svg" xmlns:xlink="http://www.w3.org/1999/xlink" x="0px" y="0px"
	 width="241px" height="241px" viewBox="0 0 241 241" enable-background="new 0 0 241 241" xml:space="preserve">
<path fill="#006699" d="M117.403,0h6.296c19.619,0.585,39.104,5.885,56.164,15.625c24.846,14.01,44.391,37.115,54.011,63.975
	c4.364,12,6.649,24.695,7.125,37.44v7.069c-0.649,18.256-5.274,36.396-13.865,52.541c-8,15.185-19.295,28.619-32.862,39.129
	C174.206,231.45,149.049,240.34,123.616,241h-6.75c-13.97-0.54-27.88-3.279-40.865-8.49c-26.479-10.453-48.93-30.664-62.145-55.88
	C5.255,160.445,0.62,142.26,0,123.96v-7.063c0.46-11.221,2.245-22.41,5.7-33.11c8.255-26.045,25.75-48.995,48.59-63.97
	C72.924,7.456,95.069,0.61,117.403,0z"/>
<path fill="#FFFFFF" d="M112.903,113.508c-6.869,0-13.094-2.217-17.533-4.65l-3.165,12.358c4.01,2.221,10.878,4.226,17.952,4.542
	v10.033h10.452v-10.875c12.145-2.007,18.689-10.031,18.689-19.428c0-9.61-4.957-15.416-17.525-19.847
	c-9.083-3.279-12.78-5.601-12.78-8.976c0-2.96,2.218-6.023,9.085-6.023c7.601,0,12.567,2.426,15.208,3.697l3.168-11.936
	c-3.695-1.685-8.451-3.272-15.42-3.479v-9.304h-10.345v10.032c-11.303,2.114-17.846,9.399-17.846,18.797
	c0,10.239,7.708,15.521,19.009,19.32c7.915,2.639,11.296,5.175,11.296,9.191C123.146,111.077,119.025,113.508,112.903,113.508z
	 M74.249,124.95c-6.524-2.358-9.185-4.03-9.185-6.458c0-2.122,1.598-4.323,6.521-4.323c5.471,0,9.04,1.743,10.941,2.654l2.274-8.58
	c-2.657-1.208-6.074-2.35-11.087-2.496v-6.679h-7.438v7.211c-8.121,1.515-12.827,6.75-12.827,13.505
	c0,7.363,5.543,11.159,13.664,13.894c5.699,1.893,8.125,3.723,8.125,6.604c0,2.96-2.968,4.71-7.368,4.71
	c-4.936,0-9.414-1.603-12.592-3.348L53,150.53c2.882,1.593,7.815,3.033,12.903,3.266V161h7.512v-7.819
	c8.73-1.438,13.434-7.209,13.434-13.96C86.846,132.311,83.282,128.137,74.249,124.95z M81.198,74.364
	c-3.579-1.294-5.037-2.209-5.037-3.542c0-1.162,0.875-2.373,3.583-2.373c2.995,0,4.95,0.957,5.994,1.461l1.244-4.706
	c-1.459-0.667-3.325-1.293-6.074-1.374v-3.66h-4.078v3.956c-4.453,0.83-7.035,3.704-7.035,7.406c0,4.036,3.038,6.114,7.492,7.62
	c3.123,1.037,4.451,2.037,4.451,3.621c0,1.619-1.622,2.58-4.034,2.58c-2.706,0-5.162-0.877-6.907-1.836l-1.248,4.872
	c1.58,0.871,4.286,1.663,7.076,1.79v3.951h4.119v-4.283c4.786-0.792,7.368-3.955,7.368-7.662
	C88.107,78.401,86.152,76.111,81.198,74.364z"/>
<g id="XMLID_50_">
	<g>
		<g id="XMLID_8_">
			<g>
				<path fill="#FFFFFF" d="M145.936,125.034l6.873-23.669l46.566,20.194l-16.347,7.671c12.713,48.331-18.907,67.11-18.907,67.11
					s5.417-27.405-7.545-54.597l-17.95,8.324L145.936,125.034z"/>
			</g>
		</g>
	</g>
</g>
</svg>
