<?xml version="1.0" encoding="utf-8"?>
<!-- Generator: Adobe Illustrator 16.0.3, SVG Export Plug-In . SVG Version: 6.00 Build 0)  -->
<!DOCTYPE svg PUBLIC "-//W3C//DTD SVG 1.1//EN" "http://www.w3.org/Graphics/SVG/1.1/DTD/svg11.dtd">
<svg version="1.1" id="Layer_1" xmlns="http://www.w3.org/2000/svg" xmlns:xlink="http://www.w3.org/1999/xlink" x="0px" y="0px"
	 width="241px" height="241px" viewBox="0 0 241 241" enable-background="new 0 0 241 241" xml:space="preserve">
<circle fill="#0099CC" cx="120.5" cy="120.5" r="120.5"/>
<g id="Team">
	<circle fill="#FFFFFF" cx="78.238" cy="70.971" r="13.056"/>
	<g>
		<path fill="#FFFFFF" d="M117.202,99.761c-17.273,0-31.275,19.648-31.275,43.886c0,11.566,3.195,25.231,8.407,20.723
			c0.686,15.906,10.375,21.668,22.261,21.668c12.143,0,22-6.003,22.301-22.71c5.903,5.297,9.586-7.267,9.586-19.681
			C148.482,119.41,134.477,99.761,117.202,99.761z"/>
		<g>
			<circle fill="#FFFFFF" cx="117.202" cy="82.652" r="15.144"/>
		</g>
	</g>
	<path fill="#FFFFFF" d="M80.156,143.646c0-18.455,7.557-34.582,18.736-43.142c-4.949-8.267-12.36-13.53-20.654-13.53
		c-14.893,0.001-26.966,16.942-26.966,37.837c0,9.975,2.754,8.85,7.248,4.961c0.593,13.718,8.946,18.685,19.194,18.685
		c0.908,0,1.792-0.054,2.666-0.138C80.161,146.438,80.156,144.719,80.156,143.646z"/>
	<g>
		<path fill="#FFFFFF" d="M161.393,80.308c-10.129,0-18.965,8.857-23.688,22.003c9.968,8.908,16.548,24.109,16.548,41.333
			c0,1.478-0.01,4.176-0.583,6.864c2.227,0.755,4.65,1.107,7.193,1.107c10.611,0,19.226-6.005,19.488-22.712
			c5.159,5.298,8.377,7.701,8.377-4.711C188.729,99.957,176.491,80.308,161.393,80.308z"/>
	</g>
	<g>
		<circle fill="#FFFFFF" cx="161.393" cy="65.802" r="12.148"/>
	</g>
</g>
</svg>
