<?xml version="1.0" encoding="utf-8"?>
<!-- Generator: Adobe Illustrator 16.0.0, SVG Export Plug-In . SVG Version: 6.00 Build 0)  -->
<!DOCTYPE svg PUBLIC "-//W3C//DTD SVG 1.0//EN" "http://www.w3.org/TR/2001/REC-SVG-20010904/DTD/svg10.dtd">
<svg version="1.0" id="Layer_1" xmlns="http://www.w3.org/2000/svg" xmlns:xlink="http://www.w3.org/1999/xlink" x="0px" y="0px"
	 width="241px" height="241px" viewBox="0 0 241 241" enable-background="new 0 0 241 241" xml:space="preserve">
<path fill="#E99426" d="M117.404,0h6.296c19.62,0.585,39.104,5.885,56.165,15.625c24.845,14.01,44.39,37.115,54.01,63.975
	c4.365,12,6.65,24.695,7.125,37.44v7.069c-0.649,18.256-5.274,36.396-13.865,52.541c-8,15.185-19.295,28.619-32.863,39.13
	c-20.065,15.67-45.222,24.56-70.655,25.22h-6.75c-13.97-0.54-27.88-3.279-40.865-8.49c-26.479-10.453-48.93-30.664-62.145-55.88
	c-8.6-16.185-13.235-34.37-13.855-52.67v-7.063c0.46-11.221,2.245-22.41,5.7-33.11c8.255-26.045,25.75-48.995,48.59-63.97
	C72.925,7.456,95.07,0.61,117.404,0z"/>
<path fill="#FFFEFC" d="M74.675,52.675c0.841-1.034,2.306-1.515,3.55-0.925c0.985,0.67,1.76,1.605,2.61,2.436
	c13.215,13.219,26.435,26.43,39.646,39.649c6.385-6.431,12.824-12.8,19.205-19.235c0.01-1.195,0.14-2.494,1.073-3.354
	c2.73-2.761,5.476-5.505,8.23-8.235c0.864-0.965,2.2-1.05,3.405-1.13c2.278-2.024,4.119-4.61,6.805-6.135
	c3.765-2.04,8.775-1.261,11.76,1.81c4,3.99,8.005,7.98,11.984,11.995c2.615,2.601,3.596,6.69,2.391,10.185
	c-1.148,3.596-4.52,5.69-6.891,8.416c-0.024,1.265-0.299,2.574-1.311,3.43c-2.795,2.745-5.494,5.6-8.354,8.279
	c-0.955,0.961-2.605,0.386-3.48,1.436c-6.215,6.245-12.455,12.46-18.68,18.689c13.84,13.814,27.67,27.645,41.484,41.484
	c1.176,1.045,1.011,3.016-0.164,3.995c-7.33,7.34-14.66,14.675-22,22c-0.905,1.05-2.66,1.306-3.721,0.354
	c-1.904-1.75-3.641-3.67-5.521-5.444c5.26-5.325,10.6-10.563,15.845-15.899c-0.1-1.006-1.3-1.984-2.095-0.994
	c-5.16,5.049-10.205,10.215-15.345,15.289c-1.771-1.789-3.545-3.574-5.347-5.334c3.091-3.142,6.267-6.201,9.325-9.371
	c1.12-0.771-0.318-2.574-1.314-1.754c-3.279,3.09-6.375,6.375-9.604,9.52c-1.771-1.79-3.55-3.564-5.33-5.335
	c3.295-3.354,6.745-6.565,9.915-10.045c-0.311-0.845-1.33-1.815-2.145-0.896c-3.17,3.064-6.227,6.25-9.381,9.329
	c-1.766-1.784-3.546-3.56-5.324-5.329c3.289-3.369,6.773-6.561,9.92-10.07c-0.437-0.614-0.82-1.516-1.75-1.174
	c-3.355,3.104-6.48,6.453-9.75,9.645c-1.795-1.77-3.575-3.561-5.355-5.346c3.17-3.229,6.48-6.334,9.561-9.646
	c0.636-0.845-0.489-1.425-1.024-1.854c-3.545,3.115-6.72,6.631-10.104,9.92c-1.806-1.771-3.59-3.564-5.365-5.364
	c4.886-4.82,9.705-9.71,14.586-14.54c0.545-0.596,1.398-1.16,1.06-2.096c-0.29-0.204-0.87-0.619-1.159-0.824
	c-14.351,14.095-28.43,28.46-42.699,42.63c-1.36,1.3-2.596,2.74-4.051,3.937c-1.475,1.199-3.465,1.17-5.26,1.148
	c-5.85-0.095-11.705-0.02-17.555-0.12c-2.405-0.114-4.43-2.42-4.285-4.819c-0.025-6.346-0.096-12.689-0.055-19.035
	c-0.01-1.649,0.865-3.154,2.024-4.279c13.005-13.005,26.04-25.99,38.976-39.064c0.824-0.55,0.285-1.899-0.631-1.925
	c-0.614-0.155-1.01,0.511-1.435,0.825c-2.95,2.955-5.89,5.915-8.854,8.85c-1.771-1.785-3.541-3.564-5.336-5.324
	c5.301-5.351,10.75-10.561,15.92-16.041c-0.34-0.799-1.289-1.81-2.109-0.909c-5.186,5.055-10.25,10.245-15.4,15.34
	c-1.774-1.785-3.58-3.545-5.324-5.36c3.084-3.104,6.24-6.14,9.295-9.274c1.26-0.905-0.58-2.851-1.525-1.605
	c-3.165,3.05-6.23,6.21-9.345,9.31c-1.806-1.76-3.58-3.545-5.351-5.334c3.215-3.211,6.476-6.385,9.58-9.695
	c0.49-0.895-0.525-1.365-1.074-1.811c-3.551,3.105-6.715,6.631-10.105,9.91c-1.785-1.76-3.545-3.545-5.325-5.305
	c2.854-2.865,5.716-5.73,8.585-8.575c0.555-0.6,1.41-1.21,0.99-2.14c-0.279-0.205-0.846-0.61-1.125-0.811
	c-3.529,3.115-6.7,6.615-10.075,9.896c-1.774-1.774-3.534-3.56-5.329-5.315c3.254-3.289,6.539-6.55,9.809-9.82
	c-0.01-1.049-1.189-2.029-2.045-1.119c-3.174,3.055-6.234,6.225-9.359,9.324c-1.785-1.819-3.641-3.569-5.391-5.42
	c-1.004-1.039-0.824-2.885,0.271-3.789C60.18,67.221,67.45,59.971,74.675,52.675z"/>
<path fill="#E99426" d="M160.7,61.16c1.646-1.405,4.3-1.235,5.819,0.285c2.101,2.01,4.104,4.125,6.201,6.15
	c-2.302,2.314-4.625,4.609-6.916,6.934c-3.176-3-6.181-6.174-9.311-9.225C157.9,63.925,159.215,62.45,160.7,61.16z"/>
<path fill="#E99426" d="M152.67,67.695c0.646-0.825,1.785-0.391,2.335,0.305c2.892,2.925,5.86,5.785,8.705,8.755
	c1.021,0.896-0.035,2.556-1.26,2.399c-0.81-0.329-1.365-1.034-1.985-1.614c-2.555-2.64-5.229-5.16-7.76-7.825
	C152.064,69.23,152.016,68.189,152.67,67.695z"/>
<path fill="#E99426" d="M145.705,74.73c1.005-0.556,1.835,0.455,2.484,1.084c2.715,2.806,5.561,5.485,8.246,8.32
	c1.244,1.195-0.855,3.165-2.012,1.92c-3.05-2.949-6.04-5.97-9.015-8.994C144.585,76.416,144.811,75.18,145.705,74.73z"/>
<path fill="#E99426" d="M69.706,152.12c24.39-24.415,48.78-48.825,73.179-73.235c3.07,3.105,6.165,6.19,9.262,9.27
	c-24.41,24.406-48.766,48.861-73.19,73.25c-2.03-2.094-1.69-5.59,0.405-7.504c19.595-19.59,39.164-39.211,58.744-58.82
	c1-0.689,0.574-2.49-0.664-2.555c-0.682-0.166-1.235,0.24-1.67,0.705c-19.596,19.59-39.15,39.229-58.771,58.795
	C75.055,153.977,71.66,154.146,69.706,152.12z"/>
<path fill="#E99426" d="M67.521,155.779c1.734,1.275,3.805,1.979,5.944,2.109c0.08,2.45,1.065,4.775,2.69,6.602
	c-1.615,1.595-3.221,3.205-4.82,4.82c-1.255-1.307-2.635-2.49-3.805-3.871C67.46,162.227,67.621,159,67.521,155.779z"/>
</svg>
